<?xml version="1.0" standalone="no"?>
<!DOCTYPE svg PUBLIC "-//W3C//DTD SVG 20010904//EN"
 "http://www.w3.org/TR/2001/REC-SVG-20010904/DTD/svg10.dtd">
<svg version="1.0" xmlns="http://www.w3.org/2000/svg"
 width="83.000000pt" height="77.000000pt" viewBox="0 0 83.000000 77.000000"
 preserveAspectRatio="xMidYMid meet">

<g transform="translate(0.000000,77.000000) scale(0.100000,-0.100000)"
fill="#000000" stroke="none">
<path d="M561 600 c-84 -93 -155 -170 -158 -170 -3 0 -85 59 -183 130 -97 72
-182 130 -189 130 -36 0 9 -43 170 -160 l181 -133 -35 -36 c-160 -170 -288
-323 -283 -338 9 -21 21 -10 198 190 78 86 145 157 149 157 5 0 95 -63 200
-140 105 -77 195 -140 200 -140 5 0 9 8 9 18 -1 10 -68 66 -181 147 -99 72
-185 135 -191 142 -7 9 30 56 136 175 129 144 166 198 137 198 -4 0 -77 -76
-160 -170z"/>
</g>
</svg>
